<svg id="visual" viewBox="0 0 1080 1920" width="1080" height="1920" xmlns="http://www.w3.org/2000/svg" xmlns:xlink="http://www.w3.org/1999/xlink" version="1.1"><rect x="0" y="0" width="1080" height="1920" fill="#111"></rect><path d="M0 791L25.7 788.8C51.3 786.7 102.7 782.3 154.2 774.7C205.7 767 257.3 756 308.8 715.8C360.3 675.7 411.7 606.3 463 594.2C514.3 582 565.7 627 617 627C668.3 627 719.7 582 771.2 597.5C822.7 613 874.3 689 925.8 680.2C977.3 671.3 1028.7 577.7 1054.3 530.8L1080 484L1080 0L1054.3 0C1028.7 0 977.3 0 925.8 0C874.3 0 822.7 0 771.2 0C719.7 0 668.3 0 617 0C565.7 0 514.3 0 463 0C411.7 0 360.3 0 308.8 0C257.3 0 205.7 0 154.2 0C102.7 0 51.3 0 25.7 0L0 0Z" fill="#a2a2a2"></path><path d="M0 634L25.7 617C51.3 600 102.7 566 154.2 525.7C205.7 485.3 257.3 438.7 308.8 443.7C360.3 448.7 411.7 505.3 463 540C514.3 574.7 565.7 587.3 617 564.5C668.3 541.7 719.7 483.3 771.2 470C822.7 456.7 874.3 488.3 925.8 499.8C977.3 511.3 1028.7 502.7 1054.3 498.3L1080 494L1080 0L1054.3 0C1028.7 0 977.3 0 925.8 0C874.3 0 822.7 0 771.2 0C719.7 0 668.3 0 617 0C565.7 0 514.3 0 463 0C411.7 0 360.3 0 308.8 0C257.3 0 205.7 0 154.2 0C102.7 0 51.3 0 25.7 0L0 0Z" fill="#b9b9b9"></path><path d="M0 487L25.7 452.5C51.3 418 102.7 349 154.2 330.7C205.7 312.3 257.3 344.7 308.8 375.5C360.3 406.3 411.7 435.7 463 435.5C514.3 435.3 565.7 405.7 617 385C668.3 364.3 719.7 352.7 771.2 366.2C822.7 379.7 874.3 418.3 925.8 433.3C977.3 448.3 1028.7 439.7 1054.3 435.3L1080 431L1080 0L1054.3 0C1028.7 0 977.3 0 925.8 0C874.3 0 822.7 0 771.2 0C719.7 0 668.3 0 617 0C565.7 0 514.3 0 463 0C411.7 0 360.3 0 308.8 0C257.3 0 205.7 0 154.2 0C102.7 0 51.3 0 25.7 0L0 0Z" fill="#d0d0d0"></path><path d="M0 359L25.7 337.2C51.3 315.3 102.7 271.7 154.2 254.2C205.7 236.7 257.3 245.3 308.8 257.8C360.3 270.3 411.7 286.7 463 281.3C514.3 276 565.7 249 617 237.3C668.3 225.7 719.7 229.3 771.2 241.2C822.7 253 874.3 273 925.8 290.7C977.3 308.3 1028.7 323.7 1054.3 331.3L1080 339L1080 0L1054.3 0C1028.7 0 977.3 0 925.8 0C874.3 0 822.7 0 771.2 0C719.7 0 668.3 0 617 0C565.7 0 514.3 0 463 0C411.7 0 360.3 0 308.8 0C257.3 0 205.7 0 154.2 0C102.7 0 51.3 0 25.7 0L0 0Z" fill="#e7e7e7"></path><path d="M0 216L25.7 204.3C51.3 192.7 102.7 169.3 154.2 168.5C205.7 167.7 257.3 189.3 308.8 196.5C360.3 203.7 411.7 196.3 463 190.5C514.3 184.7 565.7 180.3 617 176.3C668.3 172.3 719.7 168.7 771.2 170.8C822.7 173 874.3 181 925.8 186.5C977.3 192 1028.7 195 1054.3 196.5L1080 198L1080 0L1054.3 0C1028.7 0 977.3 0 925.8 0C874.3 0 822.7 0 771.2 0C719.7 0 668.3 0 617 0C565.7 0 514.3 0 463 0C411.7 0 360.3 0 308.8 0C257.3 0 205.7 0 154.2 0C102.7 0 51.3 0 25.7 0L0 0Z" fill="#ffffff"></path></svg>