<svg id="visual" viewBox="0 0 1920 1080" width="1920" height="1080" xmlns="http://www.w3.org/2000/svg" xmlns:xlink="http://www.w3.org/1999/xlink" version="1.1"><rect x="0" y="0" width="1920" height="1080" fill="#111"></rect><path d="M0 444L45.7 442.8C91.3 441.7 182.7 439.3 274.2 435.2C365.7 431 457.3 425 548.8 402.5C640.3 380 731.7 341 823 334.2C914.3 327.3 1005.7 352.7 1097 352.7C1188.3 352.7 1279.7 327.3 1371.2 336C1462.7 344.7 1554.3 387.3 1645.8 382.3C1737.3 377.3 1828.7 324.7 1874.3 298.3L1920 272L1920 0L1874.3 0C1828.7 0 1737.3 0 1645.8 0C1554.3 0 1462.7 0 1371.2 0C1279.7 0 1188.3 0 1097 0C1005.7 0 914.3 0 823 0C731.7 0 640.3 0 548.8 0C457.3 0 365.7 0 274.2 0C182.7 0 91.3 0 45.7 0L0 0Z" fill="#a2a2a2"></path><path d="M0 356L45.7 346.5C91.3 337 182.7 318 274.2 295.3C365.7 272.7 457.3 246.3 548.8 249.2C640.3 252 731.7 284 823 303.5C914.3 323 1005.7 330 1097 317.2C1188.3 304.3 1279.7 271.7 1371.2 264.2C1462.7 256.7 1554.3 274.3 1645.8 280.8C1737.3 287.3 1828.7 282.7 1874.3 280.3L1920 278L1920 0L1874.3 0C1828.7 0 1737.3 0 1645.8 0C1554.3 0 1462.7 0 1371.2 0C1279.7 0 1188.3 0 1097 0C1005.7 0 914.3 0 823 0C731.7 0 640.3 0 548.8 0C457.3 0 365.7 0 274.2 0C182.7 0 91.3 0 45.7 0L0 0Z" fill="#b9b9b9"></path><path d="M0 274L45.7 254.5C91.3 235 182.7 196 274.2 185.7C365.7 175.3 457.3 193.7 548.8 211C640.3 228.3 731.7 244.7 823 244.5C914.3 244.3 1005.7 227.7 1097 216C1188.3 204.3 1279.7 197.7 1371.2 205.3C1462.7 213 1554.3 235 1645.8 243.5C1737.3 252 1828.7 247 1874.3 244.5L1920 242L1920 0L1874.3 0C1828.7 0 1737.3 0 1645.8 0C1554.3 0 1462.7 0 1371.2 0C1279.7 0 1188.3 0 1097 0C1005.7 0 914.3 0 823 0C731.7 0 640.3 0 548.8 0C457.3 0 365.7 0 274.2 0C182.7 0 91.3 0 45.7 0L0 0Z" fill="#d0d0d0"></path><path d="M0 202L45.7 189.7C91.3 177.3 182.7 152.7 274.2 142.7C365.7 132.7 457.3 137.3 548.8 144.3C640.3 151.3 731.7 160.7 823 157.7C914.3 154.7 1005.7 139.3 1097 132.8C1188.3 126.3 1279.7 128.7 1371.2 135.3C1462.7 142 1554.3 153 1645.8 162.8C1737.3 172.7 1828.7 181.3 1874.3 185.7L1920 190L1920 0L1874.3 0C1828.7 0 1737.3 0 1645.8 0C1554.3 0 1462.7 0 1371.2 0C1279.7 0 1188.3 0 1097 0C1005.7 0 914.3 0 823 0C731.7 0 640.3 0 548.8 0C457.3 0 365.7 0 274.2 0C182.7 0 91.3 0 45.7 0L0 0Z" fill="#e7e7e7"></path><path d="M0 121L45.7 114.5C91.3 108 182.7 95 274.2 94.5C365.7 94 457.3 106 548.8 110C640.3 114 731.7 110 823 106.8C914.3 103.7 1005.7 101.3 1097 99C1188.3 96.7 1279.7 94.3 1371.2 95.5C1462.7 96.7 1554.3 101.3 1645.8 104.5C1737.3 107.7 1828.7 109.3 1874.3 110.2L1920 111L1920 0L1874.3 0C1828.7 0 1737.3 0 1645.8 0C1554.3 0 1462.7 0 1371.2 0C1279.7 0 1188.3 0 1097 0C1005.7 0 914.3 0 823 0C731.7 0 640.3 0 548.8 0C457.3 0 365.7 0 274.2 0C182.7 0 91.3 0 45.7 0L0 0Z" fill="#ffffff"></path></svg>