<?xml version="1.0" standalone="no"?>
<!DOCTYPE svg PUBLIC "-//W3C//DTD SVG 20010904//EN"
 "http://www.w3.org/TR/2001/REC-SVG-20010904/DTD/svg10.dtd">
<svg version="1.0" xmlns="http://www.w3.org/2000/svg"
 width="337.000000pt" height="202.000000pt" viewBox="0 0 337.000000 202.000000"
 preserveAspectRatio="xMidYMid meet">

<g transform="translate(0.000000,202.000000) scale(0.100000,-0.100000)"
fill="#fff" stroke="none">
<path d="M44 1933 c2 -10 7 -34 11 -53 3 -19 16 -73 27 -120 11 -47 31 -134
44 -195 12 -60 34 -162 48 -225 14 -63 37 -167 51 -230 13 -63 31 -146 40
-185 22 -94 61 -267 75 -335 6 -30 18 -89 27 -130 9 -41 21 -97 28 -125 7 -27
23 -96 36 -152 l23 -103 188 0 c168 0 188 2 188 17 0 9 25 95 56 192 31 97 57
182 60 188 10 33 33 8 58 -61 14 -41 26 -79 26 -86 0 -6 7 -35 16 -63 15 -49
21 -65 43 -119 6 -13 13 -33 16 -45 6 -23 8 -23 185 -23 l179 0 19 68 c11 37
27 103 37 147 9 44 23 106 31 137 8 32 14 70 14 84 0 15 4 43 9 63 5 20 16 70
25 111 8 41 26 125 40 185 14 61 32 151 41 200 9 50 22 117 30 150 7 33 21 98
30 145 22 112 63 293 80 350 7 25 21 81 31 125 10 44 22 86 27 93 8 9 -49 12
-272 12 -318 0 -319 0 -341 -73 -7 -23 -18 -62 -26 -87 -7 -25 -42 -162 -78
-305 -55 -223 -144 -571 -177 -697 -13 -49 -35 -49 -49 0 -30 108 -64 239
-115 437 -31 121 -66 254 -77 295 -23 88 -35 136 -49 205 -17 84 -50 169 -77
198 l-26 27 -279 0 c-260 0 -278 -1 -273 -17z"/>
<path d="M1927 1933 c-4 -3 -7 -415 -7 -915 l0 -908 353 0 c268 0 380 4 467
16 121 17 264 59 344 102 105 57 216 229 238 369 14 90 4 258 -18 309 -39 90
-51 110 -89 148 -62 63 -106 90 -182 111 -32 9 -29 21 7 29 29 5 100 66 100
84 0 5 6 15 14 21 23 19 50 153 43 218 -11 124 -76 236 -178 305 -48 33 -99
54 -217 90 -68 20 -857 39 -875 21z m247 -220 c97 -91 217 -118 296 -68 22 14
44 25 49 25 5 0 29 23 52 50 47 55 58 59 84 30 15 -17 17 -29 9 -82 -10 -78
-6 -270 7 -283 25 -26 -8 -94 -101 -205 -22 -26 -40 -51 -40 -55 0 -11 33 -34
49 -35 7 0 39 -15 70 -34 163 -100 240 -260 196 -412 -24 -83 -103 -159 -201
-192 -122 -41 -204 -53 -346 -50 l-133 3 -3 345 c-1 237 1 353 9 372 12 30 14
24 -60 159 -23 43 -41 90 -41 105 7 246 11 361 15 372 8 22 27 13 89 -45z"/>
</g>
</svg>
